<svg xmlns="http://www.w3.org/2000/svg" width="299.988" height="480.109" viewBox="0 0 468 749">
  <defs>
    <style>
      .cls-1 {
        fill: #f44336;
      }

      .cls-1, .cls-2, .cls-3, .cls-4 {
        fill-rule: evenodd;
      }

      .cls-1, .cls-2, .cls-4 {
        opacity: 0.7;
      }

      .cls-2 {
        fill: #2196f3;
      }

      .cls-4 {
        fill: #424242;
      }
    </style>
  </defs>
  <path id="Polygone_1" data-name="Polygone 1" class="cls-1" d="M466.934,354.653l-149.171,85.1L167.709,353.124l-0.883-171.738L316,96.282l150.054,86.634Z"/>
  <path id="Polygone_1-2" data-name="Polygone 1" class="cls-2" d="M301.434,259.859l-149.171,85.1L2.209,258.33,1.326,86.592,150.5,1.488,300.551,88.121Z"/>
  <path id="NOVA" class="cls-3" d="M134.818,632.626L110.6,589.951v22.46l24.219,42.579h11.914V583.017H134.818v49.609ZM106.6,654.99V583.017H94.681V654.99H106.6Zm58.643-20.9a33.805,33.805,0,0,0,5.859,11.377,25.779,25.779,0,0,0,8.936,7.129,29.957,29.957,0,0,0,11.132,2.881V645.81a14.726,14.726,0,0,1-6.152-2,15.671,15.671,0,0,1-5.127-5.029,27.134,27.134,0,0,1-3.467-8.252,51.967,51.967,0,0,1,0-23.682,26.569,26.569,0,0,1,3.418-8.2,15.073,15.073,0,0,1,5.078-4.883,16.477,16.477,0,0,1,6.25-2.051v-9.765a29.7,29.7,0,0,0-11.181,2.881,25.949,25.949,0,0,0-8.887,7.128,33.89,33.89,0,0,0-5.859,11.329A57.553,57.553,0,0,0,165.238,634.091Zm29.834-42.48a14.741,14.741,0,0,1,6.152,2,15.85,15.85,0,0,1,5.127,4.98,26.527,26.527,0,0,1,3.467,8.2,52.18,52.18,0,0,1,0,23.731,27.342,27.342,0,0,1-3.418,8.2,15.385,15.385,0,0,1-5.078,4.98,15.985,15.985,0,0,1-6.25,2.1v9.668A29.319,29.319,0,0,0,206.2,652.6a26.1,26.1,0,0,0,8.838-7.129,34.518,34.518,0,0,0,5.909-11.377,56.315,56.315,0,0,0,0-30.81,34.614,34.614,0,0,0-5.909-11.329,26.507,26.507,0,0,0-8.886-7.177,27.783,27.783,0,0,0-11.084-2.832v9.668Zm63.769,63.769h6.152V639.462l-15.136-56.445H236.478ZM269,636.337V655.38h5.079l23.437-72.363H284.232Zm77.149-53.222H334.525l-25.2,71.875h12.207l18.848-53.907,18.652,53.907h12.11Zm-12.4,49.023-2.734,7.91h18.652l-2.832-7.91H333.743Z"/>
  <path id="Server" class="cls-3" d="M169.032,716.425q0.243-.439.586-1.1t0.732-1.416q0.39-.756.684-1.391a10.051,10.051,0,0,0-3.589-1.294,27.275,27.275,0,0,0-4.37-.464v4.932a12.059,12.059,0,0,1,2.49.049,9.1,9.1,0,0,1,1.611.366,3.9,3.9,0,0,1,.977.464,2.816,2.816,0,0,0,.586.341A4.351,4.351,0,0,0,169.032,716.425Zm-16.285,8.252a10.588,10.588,0,0,0,2.173,2.832,15.312,15.312,0,0,0,2.93,2.124q1.611,0.9,3.223,1.685v-5.567a9.711,9.711,0,0,1-2.588-2.05,4.5,4.5,0,0,1-1.026-3.077,4.446,4.446,0,0,1,1.026-2.71,5.4,5.4,0,0,1,2.588-1.879v-5.127a12.585,12.585,0,0,0-3.54,1,9.342,9.342,0,0,0-2.93,2.05,9.953,9.953,0,0,0-1.978,3,9.715,9.715,0,0,0-.732,3.858A8.126,8.126,0,0,0,152.747,724.677Zm-1.1,20.264a7.729,7.729,0,0,0,1.977,1.245,13.188,13.188,0,0,0,2.417.806,19.73,19.73,0,0,0,2.515.415q1.245,0.12,2.417.122h0.1V742.89h-0.147a12.32,12.32,0,0,1-2.1-.195,22.146,22.146,0,0,1-2.246-.513q-1.124-.317-2.172-0.684a10.537,10.537,0,0,1-1.734-.756Zm11.426-12.5a12.964,12.964,0,0,1,2.88,2.1,3.841,3.841,0,0,1,1.123,2.832q0,4.347-4,5.323v4.687a11.749,11.749,0,0,0,4-1.221,10.4,10.4,0,0,0,2.955-2.27,10.061,10.061,0,0,0,1.855-3,9.977,9.977,0,0,0-.22-7.666,9.737,9.737,0,0,0-2.246-2.9,14.042,14.042,0,0,0-3.052-2.027q-1.684-.83-3.3-1.562v5.713Zm28.076-8.3a5.542,5.542,0,0,1,2.392.83,7.733,7.733,0,0,1,1.88,1.685,7.378,7.378,0,0,1,1.221,2.172,7.284,7.284,0,0,1,.415,2.442H185.78v4.3h16.748a19.009,19.009,0,0,0,.146-2.344,15.475,15.475,0,0,0-.806-4.98,13.451,13.451,0,0,0-2.319-4.249,12.352,12.352,0,0,0-3.638-3.027,12.04,12.04,0,0,0-4.76-1.416v4.59Zm-3.687,17.895a7.126,7.126,0,0,1-2.417-1.9,7.757,7.757,0,0,1-1.44-2.832,12.9,12.9,0,0,1-.464-3.54,15.177,15.177,0,0,1,.268-2.588,12.24,12.24,0,0,1,.928-2.954,8.34,8.34,0,0,1,1.831-2.563,5.728,5.728,0,0,1,2.979-1.465V719.5a10.234,10.234,0,0,0-4.468,1.319,13.05,13.05,0,0,0-3.638,3.051,14.5,14.5,0,0,0-2.466,4.371,15.348,15.348,0,0,0-.9,5.273,15.083,15.083,0,0,0,.977,5.469,14.728,14.728,0,0,0,2.636,4.443,12,12,0,0,0,4,3,11.711,11.711,0,0,0,5.03,1.1,12.7,12.7,0,0,0,5.468-1.026,10.738,10.738,0,0,0,3.76-3.027L197.4,740.2a6.781,6.781,0,0,1-1.587,1.172,12.489,12.489,0,0,1-1.807.806,9.319,9.319,0,0,1-1.709.439,9.173,9.173,0,0,1-1.343.122A7.839,7.839,0,0,1,187.464,742.035Zm23.316-22.241v27.539h5.908V722.626l-0.635-2.832H210.78Zm7.91,6.2a11.813,11.813,0,0,1,2.075-.512,14.1,14.1,0,0,1,2.173-.171,13.51,13.51,0,0,1,3.32.439V719.6a23.175,23.175,0,0,0-4.639.366,10.449,10.449,0,0,0-2.929,1.05V726Zm22.217,21.534h2.832v-8.155l-5.811-19.58h-6.689Zm4.834-8.155v8.155h2.832l9.668-27.735H251.6Zm31.884-15.234a5.546,5.546,0,0,1,2.393.83,7.733,7.733,0,0,1,1.88,1.685,7.352,7.352,0,0,1,1.22,2.172,7.26,7.26,0,0,1,.416,2.442h-11.28v4.3H289a18.817,18.817,0,0,0,.147-2.344,15.5,15.5,0,0,0-.806-4.98,13.471,13.471,0,0,0-2.319-4.249,12.365,12.365,0,0,0-3.638-3.027,12.045,12.045,0,0,0-4.761-1.416v4.59Zm-3.686,17.895a7.116,7.116,0,0,1-2.417-1.9,7.744,7.744,0,0,1-1.441-2.832,12.936,12.936,0,0,1-.463-3.54,15.177,15.177,0,0,1,.268-2.588,12.2,12.2,0,0,1,.928-2.954,8.323,8.323,0,0,1,1.831-2.563,5.729,5.729,0,0,1,2.978-1.465V719.5a10.233,10.233,0,0,0-4.467,1.319,13.036,13.036,0,0,0-3.638,3.051,14.5,14.5,0,0,0-2.466,4.371,15.324,15.324,0,0,0-.9,5.273,15.1,15.1,0,0,0,.976,5.469,14.731,14.731,0,0,0,2.637,4.443,11.982,11.982,0,0,0,4,3,11.707,11.707,0,0,0,5.029,1.1,12.7,12.7,0,0,0,5.469-1.026,10.738,10.738,0,0,0,3.76-3.027l-2.149-3.272a6.76,6.76,0,0,1-1.587,1.172,12.431,12.431,0,0,1-1.806.806,9.319,9.319,0,0,1-1.709.439,9.173,9.173,0,0,1-1.343.122A7.839,7.839,0,0,1,273.939,742.035Zm23.315-22.241v27.539h5.908V722.626l-0.634-2.832h-5.274Zm7.91,6.2a11.8,11.8,0,0,1,2.076-.512,14.1,14.1,0,0,1,2.172-.171,13.511,13.511,0,0,1,3.321.439V719.6a23.168,23.168,0,0,0-4.639.366,10.457,10.457,0,0,0-2.93,1.05V726Z"/>
  <path id="Polygone_1-3" data-name="Polygone 1" class="cls-4" d="M302.934,448.314l-149.171,85.1L3.709,446.784,2.826,275.046,152,189.942l150.054,86.634Z"/>
</svg>
